<mxfile host="app.diagrams.net" agent="Mozilla/5.0 (Windows NT 10.0; Win64; x64) AppleWebKit/537.36 (KHTML, like Gecko) Chrome/136.0.0.0 Safari/537.36 Edg/136.0.0.0" version="26.2.14">
  <diagram name="Page-1" id="Eb-t6wY9d0DGVTdNN2FO">
    <mxGraphModel grid="0" page="0" gridSize="10" guides="1" tooltips="1" connect="1" arrows="1" fold="1" pageScale="1" pageWidth="850" pageHeight="1100" math="0" shadow="0">
      <root>
        <mxCell id="0" />
        <mxCell id="1" parent="0" />
        <mxCell id="Xbm0gVClHZ6j_DfZjFAc-5" value="Person" style="swimlane;fontStyle=1;align=center;verticalAlign=top;childLayout=stackLayout;horizontal=1;startSize=26;horizontalStack=0;resizeParent=1;resizeParentMax=0;resizeLast=0;collapsible=1;marginBottom=0;whiteSpace=wrap;html=1;" vertex="1" parent="1">
          <mxGeometry x="-1330" y="220" width="160" height="200" as="geometry" />
        </mxCell>
        <mxCell id="Xbm0gVClHZ6j_DfZjFAc-8" value="&lt;font style=&quot;color: rgb(0, 0, 255);&quot;&gt;+ dailyRoutine()&amp;nbsp;&lt;/font&gt;&lt;div&gt;&lt;font style=&quot;color: rgb(0, 0, 255);&quot;&gt;+ WakeUp()&amp;nbsp;&lt;/font&gt;&lt;/div&gt;&lt;div&gt;&lt;font style=&quot;color: rgb(0, 0, 255);&quot;&gt;+ haveBreakfast()&amp;nbsp;&lt;/font&gt;&lt;/div&gt;&lt;div&gt;&lt;font style=&quot;color: rgb(0, 0, 255);&quot;&gt;&lt;div style=&quot;color: rgb(0, 0, 0);&quot;&gt;&lt;font style=&quot;color: rgb(0, 0, 0);&quot;&gt;+&amp;nbsp;MorningActivity()&lt;/font&gt;&lt;/div&gt;&lt;div style=&quot;color: rgb(0, 0, 0);&quot;&gt;&lt;font style=&quot;color: rgb(0, 0, 0);&quot;&gt;+ takeRest()&lt;/font&gt;&lt;/div&gt;&lt;/font&gt;&lt;/div&gt;&lt;div&gt;&lt;font style=&quot;color: rgb(0, 0, 255);&quot;&gt;+ haveLunch ()&lt;/font&gt;&lt;/div&gt;&lt;div&gt;&lt;font style=&quot;color: rgb(0, 0, 255);&quot;&gt;&lt;span style=&quot;color: rgb(0, 0, 0);&quot;&gt;+ AfternoonActivity()&lt;/span&gt;&lt;/font&gt;&lt;/div&gt;&lt;div&gt;&lt;font style=&quot;color: rgb(0, 0, 255);&quot;&gt;+ haveDinner ()&amp;nbsp;&lt;/font&gt;&lt;/div&gt;&lt;div&gt;&lt;font style=&quot;color: rgb(0, 0, 255);&quot;&gt;&lt;span style=&quot;color: rgb(0, 0, 0);&quot;&gt;+ EveningActivity()&lt;/span&gt;&lt;/font&gt;&lt;/div&gt;&lt;div&gt;&lt;font style=&quot;color: rgb(0, 0, 255);&quot;&gt;+ bruchTeeth()&lt;/font&gt;&lt;/div&gt;&lt;div&gt;&lt;font style=&quot;color: rgb(0, 0, 255);&quot;&gt;+ sleep()&lt;/font&gt;&lt;/div&gt;" style="text;align=left;verticalAlign=top;spacingLeft=4;spacingRight=4;overflow=hidden;rotatable=0;points=[[0,0.5],[1,0.5]];portConstraint=eastwest;whiteSpace=wrap;html=1;" vertex="1" parent="Xbm0gVClHZ6j_DfZjFAc-5">
          <mxGeometry y="26" width="160" height="174" as="geometry" />
        </mxCell>
        <mxCell id="Xbm0gVClHZ6j_DfZjFAc-10" value="" style="endArrow=classic;html=1;rounded=0;exitX=0.474;exitY=0;exitDx=0;exitDy=0;exitPerimeter=0;" edge="1" parent="1" source="Xbm0gVClHZ6j_DfZjFAc-11">
          <mxGeometry width="50" height="50" relative="1" as="geometry">
            <mxPoint x="-1560" y="477" as="sourcePoint" />
            <mxPoint x="-1300" y="420" as="targetPoint" />
            <Array as="points">
              <mxPoint x="-1560" y="450" />
              <mxPoint x="-1300" y="450" />
            </Array>
          </mxGeometry>
        </mxCell>
        <mxCell id="Xbm0gVClHZ6j_DfZjFAc-11" value="&lt;b&gt;Child&lt;/b&gt;" style="swimlane;fontStyle=0;childLayout=stackLayout;horizontal=1;startSize=26;fillColor=none;horizontalStack=0;resizeParent=1;resizeParentMax=0;resizeLast=0;collapsible=1;marginBottom=0;whiteSpace=wrap;html=1;" vertex="1" parent="1">
          <mxGeometry x="-1650" y="480" width="190" height="100" as="geometry" />
        </mxCell>
        <mxCell id="Xbm0gVClHZ6j_DfZjFAc-12" value="+ MorningActivity()&lt;div&gt;+ takeRest()&lt;/div&gt;&lt;div&gt;+ AfternoonActivity()&lt;/div&gt;&lt;div&gt;+ EviningActivity()&lt;/div&gt;" style="text;strokeColor=none;fillColor=none;align=left;verticalAlign=top;spacingLeft=4;spacingRight=4;overflow=hidden;rotatable=0;points=[[0,0.5],[1,0.5]];portConstraint=eastwest;whiteSpace=wrap;html=1;" vertex="1" parent="Xbm0gVClHZ6j_DfZjFAc-11">
          <mxGeometry y="26" width="190" height="74" as="geometry" />
        </mxCell>
        <mxCell id="Xbm0gVClHZ6j_DfZjFAc-15" value="&lt;b&gt;Adult&lt;/b&gt;" style="swimlane;fontStyle=0;childLayout=stackLayout;horizontal=1;startSize=26;fillColor=none;horizontalStack=0;resizeParent=1;resizeParentMax=0;resizeLast=0;collapsible=1;marginBottom=0;whiteSpace=wrap;html=1;" vertex="1" parent="1">
          <mxGeometry x="-1340" y="490" width="190" height="100" as="geometry" />
        </mxCell>
        <mxCell id="Xbm0gVClHZ6j_DfZjFAc-16" value="+ MorningActivity()&lt;div&gt;+ takeRest()&lt;/div&gt;&lt;div&gt;+ AfternoonActivity()&lt;/div&gt;&lt;div&gt;+ EviningActivity()&lt;/div&gt;" style="text;strokeColor=none;fillColor=none;align=left;verticalAlign=top;spacingLeft=4;spacingRight=4;overflow=hidden;rotatable=0;points=[[0,0.5],[1,0.5]];portConstraint=eastwest;whiteSpace=wrap;html=1;" vertex="1" parent="Xbm0gVClHZ6j_DfZjFAc-15">
          <mxGeometry y="26" width="190" height="74" as="geometry" />
        </mxCell>
        <mxCell id="Xbm0gVClHZ6j_DfZjFAc-17" value="&lt;b&gt;Senior&lt;/b&gt;" style="swimlane;fontStyle=0;childLayout=stackLayout;horizontal=1;startSize=26;fillColor=none;horizontalStack=0;resizeParent=1;resizeParentMax=0;resizeLast=0;collapsible=1;marginBottom=0;whiteSpace=wrap;html=1;" vertex="1" parent="1">
          <mxGeometry x="-990" y="480" width="190" height="105" as="geometry" />
        </mxCell>
        <mxCell id="Xbm0gVClHZ6j_DfZjFAc-18" value="+ MorningActivity()&lt;div&gt;+ takeRest()&lt;/div&gt;&lt;div&gt;+ AfternoonActivity()&lt;/div&gt;&lt;div&gt;+ EviningActivity()&lt;/div&gt;" style="text;strokeColor=none;fillColor=none;align=left;verticalAlign=top;spacingLeft=4;spacingRight=4;overflow=hidden;rotatable=0;points=[[0,0.5],[1,0.5]];portConstraint=eastwest;whiteSpace=wrap;html=1;" vertex="1" parent="Xbm0gVClHZ6j_DfZjFAc-17">
          <mxGeometry y="26" width="190" height="79" as="geometry" />
        </mxCell>
        <mxCell id="Xbm0gVClHZ6j_DfZjFAc-20" value="" style="endArrow=classic;html=1;rounded=0;exitX=0.458;exitY=0;exitDx=0;exitDy=0;exitPerimeter=0;entryX=0.481;entryY=1.015;entryDx=0;entryDy=0;entryPerimeter=0;" edge="1" parent="1" source="Xbm0gVClHZ6j_DfZjFAc-15" target="Xbm0gVClHZ6j_DfZjFAc-8">
          <mxGeometry width="50" height="50" relative="1" as="geometry">
            <mxPoint x="-1330" y="484" as="sourcePoint" />
            <mxPoint x="-1280" y="434" as="targetPoint" />
          </mxGeometry>
        </mxCell>
        <mxCell id="Xbm0gVClHZ6j_DfZjFAc-22" value="" style="endArrow=classic;html=1;rounded=0;exitX=0.5;exitY=0;exitDx=0;exitDy=0;entryX=0.481;entryY=1.015;entryDx=0;entryDy=0;entryPerimeter=0;" edge="1" parent="1" source="Xbm0gVClHZ6j_DfZjFAc-17">
          <mxGeometry width="50" height="50" relative="1" as="geometry">
            <mxPoint x="-1210" y="487" as="sourcePoint" />
            <mxPoint x="-1210" y="420" as="targetPoint" />
            <Array as="points">
              <mxPoint x="-895" y="460" />
              <mxPoint x="-1210" y="460" />
            </Array>
          </mxGeometry>
        </mxCell>
      </root>
    </mxGraphModel>
  </diagram>
</mxfile>
